<svg width="174" height="215" viewBox="0 0 174 215" fill="none" xmlns="http://www.w3.org/2000/svg">
<path d="M100.97 163.275L14.7923 160.553L27.9666 36.1399L114.144 38.8618C120.359 39.0583 124.888 44.0285 124.26 49.9623L113.361 152.886C112.733 158.82 107.185 163.471 100.97 163.275Z" fill="#4D3144" stroke="#FBE8D7" stroke-width="2" stroke-miterlimit="10"/>
<path d="M33.4447 33.2394L28.4551 33.0146L18.0578 160.28L23.0473 160.504L33.4447 33.2394Z" fill="#FBE8D7"/>
<path d="M55.0428 19.3623L45.1992 19.0049L43.7124 34.5763L53.5561 34.9338L55.0428 19.3623Z" stroke="#FBE8D7" stroke-width="2" stroke-miterlimit="10"/>
<path d="M71.1405 20.5157L61.2969 20.1582L59.8101 35.7296L69.6537 36.0871L71.1405 20.5157Z" stroke="#FBE8D7" stroke-width="2" stroke-miterlimit="10"/>
<path d="M134.496 97.1317L88.3917 112.452L78.3659 115.784L96.8659 191.284L106.892 187.953L152.996 172.632C155.248 171.883 156.655 169.564 156.138 167.452L139.511 99.6013C138.995 97.4886 136.749 96.3827 134.496 97.1317Z" fill="#4D3144" stroke="#FBE8D7" stroke-width="2" stroke-miterlimit="10"/>
<path d="M126.483 99.2821L120.339 101.124L141.607 178.52L147.751 176.678L126.483 99.2821Z" stroke="#FBE8D7" stroke-width="2" stroke-miterlimit="10"/>
</svg>
