<svg width="159" height="90" viewBox="0 0 159 90" fill="none" xmlns="http://www.w3.org/2000/svg">
<path d="M145.515 31.7523C144.756 31.6088 144.004 31.4723 143.255 31.3288C139.795 30.6672 136.316 30.0966 132.823 29.6416C125.874 28.742 118.783 28.217 111.788 28.8436C110.372 28.9696 108.967 29.1691 107.566 29.4071C106.105 29.5961 104.649 29.8516 103.207 30.1492C100.83 30.6392 98.4782 31.2412 96.1325 31.8678C110.206 26.6314 124.653 21.5455 137.07 12.9558C138.444 12.0072 139.777 11.0061 141.086 9.97004C143.419 15.1155 145.2 20.5689 145.603 26.2253C145.732 28.07 145.69 29.9181 145.515 31.7523ZM141.838 43.8598C139.13 48.8057 134.969 52.908 129.637 54.8961C123.793 57.0768 117.362 57.4618 111.264 56.2157C105.281 54.9942 99.7171 52.1834 95.0535 48.2561C91.3241 45.1128 87.9494 41.1995 85.6174 36.8347C90.7461 35.4346 95.8796 34.045 101.044 32.8024C104.816 31.8958 108.657 31.1922 112.55 31.1747C116.415 31.1537 120.163 31.9973 123.832 33.1629C127.29 34.262 130.682 35.5256 133.993 37.0062C137.046 38.3713 140.064 39.8274 143.178 41.0455C142.776 42.0011 142.342 42.9462 141.838 43.8598ZM84.136 33.6424C82.9673 30.6742 82.3701 27.4504 82.9656 24.2862C83.4803 21.5385 84.7623 18.9727 86.4799 16.7816C90.5067 11.6397 96.5388 8.73095 102.49 6.40676C105.749 5.13266 109.057 3.93554 112.467 3.13048C115.716 2.36742 119.022 2.12239 122.352 2.12589C125.407 2.12589 128.477 2.33943 131.477 2.94148C133.785 3.40702 136.269 4.07557 138.182 5.51419C138.92 6.06723 139.511 6.71127 139.935 7.53034C139.966 7.59334 139.994 7.65636 140.026 7.71936C139.949 7.86988 139.903 8.03787 139.9 8.20588C128.035 17.5726 113.751 22.9701 99.736 28.238C94.5923 30.1736 89.4431 32.0988 84.2924 34.0204C84.241 33.8944 84.1857 33.7684 84.136 33.6424ZM80.7113 28.749C80.9436 30.8177 81.4943 32.8339 82.2756 34.7765C79.8009 35.7006 77.3261 36.6247 74.8531 37.5522C72.4232 38.1998 69.9932 38.8508 67.5632 39.4984C67.4754 39.1274 67.3827 38.7563 67.2795 38.3888C66.3708 35.1125 64.7428 32.0253 62.2576 29.6766C61.9685 29.4036 61.6691 29.1411 61.3612 28.8891C65.8768 23.8241 74.3714 21.0414 80.7438 23.2221C80.8488 23.2606 80.9453 23.2746 81.0381 23.2781C80.6371 25.0492 80.5013 26.8834 80.7113 28.749ZM65.5188 40.0445C62.3093 40.902 59.1016 41.7561 55.8938 42.6136C41.0145 46.5865 25.9411 51.1543 10.4166 51.3609C8.70948 51.3819 7.00202 51.3398 5.29668 51.2488C5.17981 51.1193 5.03182 51.0143 4.86318 50.9513C4.85618 50.9128 4.84917 50.8778 4.84252 50.8393C4.54302 48.7566 5.54125 46.7685 6.68363 45.0953C7.01777 44.6053 7.38061 44.1363 7.75429 43.6742C7.77843 43.6462 7.80083 43.6182 7.82497 43.5902C7.87815 43.5307 7.92294 43.4712 7.95898 43.4082C9.26161 41.8401 10.7623 40.4155 12.2993 39.1029C14.688 37.0657 17.2709 35.2211 19.9643 33.6074C22.9964 31.7908 26.3179 30.5377 29.689 29.5156C36.029 27.5939 42.9575 25.7248 49.6364 26.4703C55.4085 27.1144 60.9171 29.8341 63.7344 35.1055C64.5602 36.6527 65.1266 38.3258 65.5188 40.0445ZM66.1868 44.6368C66.4121 47.6645 66.312 50.7168 65.8649 53.7165C64.9835 59.611 62.8377 65.3725 59.3633 70.2344C55.7507 75.2853 50.7827 79.4401 45.0624 81.8938C42.3396 83.0594 39.4449 83.931 36.4765 84.099C33.6886 84.253 30.9095 83.8469 28.2437 83.0314C26.0131 82.3453 23.8725 81.3548 21.8607 80.1402C24.7105 75.8068 27.0061 71.0989 29.9196 66.8006C32.0469 63.6643 34.2652 60.5211 36.8894 57.7769C39.6118 54.9276 42.8696 52.7434 46.3769 50.9723C49.831 49.2292 53.4775 47.8956 57.095 46.534C60.0774 45.4139 63.0613 44.2903 66.0454 43.1702C66.1007 43.6602 66.1504 44.1468 66.1868 44.6368ZM14.49 73.9586C14.3213 73.7696 14.1422 73.5841 13.9788 73.3881C9.735 68.2987 7.26375 62.0717 5.78548 55.6697C5.60808 54.9066 5.44818 54.1366 5.29668 53.3665C21.1242 54.2101 36.6157 49.9572 51.7669 45.9109C52.8648 45.6169 53.9628 45.3264 55.0607 45.0324C54.5065 45.2424 53.9509 45.4524 53.3967 45.6659C50.4814 46.7825 47.6092 47.9901 44.8797 49.4252C44.8125 49.4357 44.7454 49.4532 44.682 49.4847C38.4848 52.4284 32.9573 56.5728 27.779 61.0356C23.0961 65.0714 18.6942 69.4293 14.49 73.9586ZM152.73 33.4499C151.068 32.9144 149.346 32.5153 147.615 32.1618C147.632 31.9658 147.667 31.7733 147.685 31.5773C148.283 24.5837 146.617 17.6391 143.934 11.2161C143.503 10.1835 143.038 9.16497 142.562 8.14989C143.286 7.32033 143.78 6.29474 143.895 5.18515C143.941 4.76161 143.811 4.18407 143.346 4.01255C141.775 3.43151 140.165 2.96246 138.559 2.50043C137.005 2.05239 135.444 1.60437 133.864 1.26135C133.749 1.23334 133.642 1.23332 133.54 1.24032C131.664 0.750286 129.735 0.456255 127.81 0.27074C124.505 -0.0477851 121.174 -0.0827811 117.863 0.155238C114.097 0.42476 110.408 1.35233 106.837 2.55293C100.12 4.80711 93.0847 7.53382 87.7447 12.3292C85.0016 14.7934 82.7865 17.9157 81.5871 21.3705C81.4821 21.2794 81.3565 21.2024 81.205 21.1499C74.0841 18.7137 64.5413 21.9445 59.6247 27.6394C58.0155 26.6244 56.25 25.8473 54.4327 25.2872C47.802 23.2501 40.7427 24.4367 34.1686 26.0888C30.5067 27.0094 26.8497 28.0385 23.3732 29.5261C20.1105 30.9227 17.104 32.7779 14.2471 34.8745C11.6968 36.7437 9.24446 38.8088 7.11925 41.161C6.82324 41.4865 6.53423 41.8261 6.24838 42.1691C6.24663 42.1726 6.24487 42.1726 6.24487 42.1726C5.15742 43.3697 4.1487 44.6438 3.14557 45.9109C2.10606 47.22 1.0683 48.5396 0.128858 49.9222C-0.153501 50.3387 0.0753233 50.8743 0.36293 51.1998C1.0753 52.0014 2.02524 52.5404 3.05075 52.8065C4.21098 59.1 6.06608 65.306 9.47502 70.7734C10.525 72.457 11.7227 74.0497 13.0442 75.5303C13.0253 75.5513 13.0047 75.5723 12.9858 75.5933C10.9208 77.8615 8.6129 80.2172 7.66646 83.2134C7.12938 84.9145 7.31552 86.8957 8.78329 88.0753C10.0191 89.0659 11.7297 89.2864 13.2405 88.9328C13.9753 88.7578 14.6275 88.4183 15.2006 87.9353C16.5207 86.8222 17.7289 85.5901 18.8317 84.267C19.4738 83.4969 20.0742 82.6989 20.6543 81.8868C21.6679 82.5063 22.7144 83.0699 23.7917 83.5704C29.3021 86.1396 35.4748 87.0112 41.3896 85.4186C47.8552 83.6754 53.7322 79.9161 58.2395 74.9877C62.5983 70.2204 65.6119 64.3259 67.1658 58.0674C68.41 53.055 68.8487 47.591 68.107 42.3931C68.5114 42.2426 68.9159 42.0921 69.3221 41.9381C71.5044 41.119 73.688 40.2964 75.872 39.4739C76.1369 39.4039 76.4003 39.3339 76.6652 39.2639C78.9454 38.6548 81.2239 38.0353 83.5009 37.4122C85.2164 40.685 87.5159 43.6987 89.9476 46.3169C94.3152 51.0248 99.7672 54.7246 105.816 56.8913C112.134 59.1525 119.04 59.646 125.607 58.2704C131.792 56.9788 137.204 53.8916 141.093 48.8582C142.765 46.6915 144.112 44.3008 145.169 41.7841C147.835 42.7081 150.571 43.4047 153.398 43.6322C154.976 43.7582 156.509 43.0687 157.59 41.9311C158.664 40.804 159.171 39.1519 158.584 37.6607C157.656 35.3086 154.962 34.171 152.73 33.4499Z" fill="#FBE8D7"/>
</svg>
