<svg class="hand" width="868" height="915" viewBox="0 0 868 915" xmlns="http://www.w3.org/2000/svg">
<path  fill="var(--svg-bg)" d="M320.114 156.807C323.406 150.424 327.243 144.36 331.708 138.767C326.284 137.25 321.105 134.597 316.314 131.845C312.602 129.713 309.002 127.374 305.503 124.91C303.967 123.831 302.456 122.728 300.957 121.593C300.198 121.022 299.446 120.439 298.7 119.862C298.468 119.68 298.236 119.499 298.004 119.317C275.636 121.373 253.263 123.361 230.877 125.273C232.47 128.584 234.1 131.876 235.774 135.149C245.845 134.365 256.323 133.055 265.904 129.832C267.146 129.412 268.789 129.863 269.667 130.829C272.915 134.384 277.079 136.773 281.104 139.338C285.155 141.921 289.225 144.479 293.407 146.856C301.521 151.471 310.476 156.073 319.944 156.775C320.007 156.782 320.057 156.8 320.114 156.807Z" class="bg"/>
<path  fill="var(--svg-bg)" d="M277.198 146.016C273.298 143.526 269.297 141.087 265.905 137.927C257.502 140.492 248.491 141.764 239.688 142.561C244.641 151.621 249.94 160.487 255.458 169.216C267.146 187.694 279.719 205.583 291.796 223.805C294.267 227.535 296.794 231.266 299.384 234.953C300.243 234.288 301.089 233.618 301.948 232.959C302.45 212.129 306.212 191.293 313.498 171.761C314.458 169.184 315.511 166.639 316.621 164.118C307.316 162.732 298.587 158.631 290.435 154.06C285.927 151.533 281.55 148.793 277.198 146.016Z" class="bg"/>
<path  fill="var(--svg-bg)" d="M115.122 126.716C116.495 126.622 117.869 126.521 119.242 126.421C117.818 121.568 116.495 116.683 115.279 111.774C113.554 104.795 112.024 97.5652 111.661 90.3167C103.227 90.9312 94.7865 91.5332 86.3526 92.1226C84.3397 92.2668 82.3268 92.4047 80.314 92.5427C83.512 104.475 84.3147 116.846 82.9226 129.117C87.4814 129.123 92.5291 128.34 97.1443 128.014C103.014 127.6 108.883 127.173 114.746 126.747C114.878 126.722 114.997 126.722 115.122 126.716Z" class="bg"/>
<path  fill="var(--svg-bg)" d="M534.857 87.5078C539.49 86.9999 543.717 86.4858 547.134 83.0121C549.868 80.2343 551.217 76.4784 551.072 72.6097C550.897 67.8443 550.821 61.8749 548.213 57.7554C542.632 48.9519 532.311 51.6858 523.645 52.6326C519.638 53.0715 515.625 53.4916 511.618 53.9243C512.088 65.2107 512.276 76.5035 512.138 87.7963C512.126 88.718 511.85 89.4579 511.417 90.041C519.23 89.1883 527.05 88.3668 534.857 87.5078Z" class="bg"/>
<path  fill="var(--svg-bg)" d="M33.9741 110.72C35.5919 111.435 36.8899 112.727 37.3477 114.595C38.0625 117.511 36.6705 120.326 33.7986 121.298C33.7484 121.311 33.6982 121.311 33.6543 121.329C44.9037 123.148 56.1532 124.972 67.4089 126.791C69.9673 127.205 72.6386 127.813 75.3099 128.314C76.7333 116.62 75.7112 104.745 72.5257 93.4204C59.5707 98.9132 46.7598 104.788 33.9741 110.72Z" class="bg"/>
<path  fill="var(--svg-bg)" d="M208.228 82.8302C214.254 91.8782 219.533 101.44 224.23 111.285C225.277 113.473 226.312 115.661 227.347 117.85C233.228 117.354 239.11 116.846 244.992 116.338C293.664 112.112 342.305 107.535 390.915 102.676C429.178 98.8507 467.429 94.8064 505.66 90.6617C504.902 90.041 504.388 89.0879 504.4 87.7962C504.538 76.7794 504.35 65.7625 503.905 54.7581C498.826 55.3037 493.74 55.8555 488.655 56.3947C450.323 60.4641 411.965 64.3015 373.589 68.0072C373.313 68.0636 373.038 68.095 372.762 68.0888C363.688 68.9603 354.627 69.8758 345.554 70.7285C299.803 75.0362 254.028 79.068 208.228 82.8302Z" class="bg"/>
<path  fill="var(--svg-bg)" d="M603.739 617.371C585.398 622.28 567.382 628.444 549.937 635.937C488.323 662.41 433.618 704.101 392.006 756.709C388.921 760.609 383.478 755.103 386.538 751.241C398.528 736.079 411.589 721.79 425.629 708.509C475.029 661.796 535.992 627.503 601.682 609.915C606.504 608.624 608.542 616.085 603.739 617.371ZM785.461 814.069C764.486 785.715 743.329 757.492 722.015 729.389C701.924 702.891 681.689 676.499 661.253 650.265C644.473 628.732 627.586 607.282 610.336 586.126C606.962 581.988 603.57 577.862 600.158 573.761C595.938 568.688 591.693 562.048 585.755 558.988C580.444 556.248 574.687 558.756 569.558 560.75C564.253 562.807 558.98 564.939 553.737 567.152C543.435 571.497 533.258 576.144 523.212 581.053C483.068 600.673 444.98 624.625 410.009 652.447C392.395 666.461 375.527 681.434 359.556 697.298C355.756 701.079 351.724 704.991 349.51 709.976C347.033 715.569 347.767 721.727 349.454 727.426C352.119 736.406 356.69 744.946 360.722 753.385C377.603 788.75 396.189 823.33 415.696 857.309C426.689 876.452 437.976 895.507 449.903 914.143H858.03C853.089 907.145 848.129 900.166 843.144 893.206C824.144 866.658 804.875 840.31 785.461 814.069Z" class="bg"/>
<path  fill="var(--svg-bg)" d="M112.789 196.51C118.201 196.786 123.775 196.328 128.798 194.158C134.197 191.826 138.561 187.719 142.668 183.618C143.145 183.142 143.653 182.841 144.173 182.671C142.424 179.624 140.674 176.583 138.937 173.535C133.463 163.885 128.729 153.916 124.866 143.513C123.694 140.366 122.615 137.18 121.58 133.989C120.101 134.095 118.621 134.196 117.141 134.302C110.413 140.955 103.22 147.119 96.7928 154.079C89.8136 161.641 83.5806 171.096 87.2991 181.712C90.9047 192.001 100.9 195.557 110.895 196.384C111.535 196.215 112.187 196.278 112.789 196.51Z" class="bg"/>
<path  fill="var(--svg-bg)" d="M106.099 82.9805C107.992 82.8425 109.886 82.7108 111.78 82.5729C111.805 82.2092 111.811 81.8393 111.855 81.4756C113.799 63.1664 126.86 49.5474 144.675 45.5156C152.871 43.6659 161.901 43.647 169.896 46.431C176.028 48.5692 181.446 52.1307 186.268 56.3945C186.187 55.1405 186.124 53.8801 186.105 52.6324C186.017 47.033 186.519 41.2643 188.124 35.8782C189.541 31.1128 197.003 33.1569 195.58 37.9348C194.131 42.8068 193.761 47.4782 193.843 52.6324C193.918 57.3915 194.432 61.8183 195.825 66.3579C198.37 69.3238 200.778 72.3962 203.098 75.5313C209.005 75.0485 214.912 74.5657 220.819 74.0704C238.533 72.5969 256.242 71.0293 273.956 69.468C273.975 69.3301 273.981 69.1984 274.025 69.0542C277.236 57.2535 283.801 46.4248 292.843 38.1794C294.392 36.7686 296.775 36.6432 298.311 38.1794C299.741 39.609 299.854 42.2425 298.311 43.6533C290.786 50.513 285.281 59.1346 282.214 68.7532C309.103 66.3642 335.985 63.9 362.861 61.3292C344.544 46.3558 327.388 29.6894 307.729 16.5344C303.171 13.4808 298.336 10.7532 293.044 9.21074C287.231 7.51777 281.192 7.51147 275.21 8.08834C262.6 9.31104 250.027 11.9697 237.53 14.0075C212.385 18.1145 187.234 22.2215 162.089 26.3223C149.591 28.3664 137.05 30.2851 124.691 33.044C114.156 35.3954 102.506 38.0477 94.2096 45.4216C87.8073 51.115 82.8096 60.4514 86.6911 68.9225C90.2465 76.6788 97.9343 81.4443 106.099 82.9805Z" class="bg"/>
<path  fill="var(--svg-bg)" d="M127.926 262.598C133.664 259.764 139.032 256.177 143.81 251.945C151.893 244.778 158.427 236.175 164.735 227.465C161.926 219.145 158.746 210.956 155.022 202.993C152.839 198.321 150.419 193.788 147.923 189.292C143.791 193.399 139.376 197.437 134.166 200.121C128.811 202.886 122.885 204.134 116.884 204.303C115.774 204.334 114.652 204.328 113.523 204.303C106.249 213.025 98.4671 221.39 91.6886 230.5C85.6312 238.652 79.3481 250.722 85.6437 260.535C91.8642 270.222 105.089 270.16 114.953 267.526C118.872 266.479 122.697 265.081 126.384 263.363C126.873 262.943 127.4 262.692 127.926 262.598Z" class="bg"/>
<path  fill="var(--svg-bg)" d="M207.049 156.958C196.584 162.212 185.905 167.015 175.044 171.404C173.094 172.188 170.793 170.539 170.285 168.702C169.689 166.52 171.056 164.726 172.987 163.943C183.227 159.81 193.279 155.233 203.142 150.28C205.017 149.333 207.325 149.766 208.435 151.665C209.444 153.383 208.911 156.017 207.049 156.958ZM151.341 118.452C148.181 119.179 144.356 120.44 141.101 119.85C137.734 119.242 136.461 116.677 134.969 113.918C131.846 108.112 128.736 102.212 126.698 95.9164C124.848 90.1917 123.694 83.4323 125.964 77.6574C128.071 72.3089 132.63 68.3774 137.734 65.9508C147.234 61.4237 161.851 57.6365 170.83 64.9915C175.176 68.553 178.65 73.4125 181.547 78.1841C184.469 83.0123 187.102 88.3733 188.137 93.9601C188.739 98.3932 187.479 101.34 183.879 103.98C180.794 106.244 177.446 108.2 174.059 109.974C166.898 113.737 159.23 116.633 151.341 118.452ZM490.906 475.443C488.818 468.791 488.398 461.856 487.928 454.933C487.175 443.942 487.018 432.925 487.282 421.92C488.373 376.191 496.431 330.983 503.046 285.83C506.257 263.903 509.235 241.895 510.684 219.767C511.38 209.151 511.637 198.254 508.953 187.864C506.112 176.841 499.34 168.307 492.261 159.66C485.695 151.634 478.973 143.646 471.091 136.868C464.507 131.199 456.957 127.193 449.351 123.111C439.481 117.806 429.549 112.608 419.591 107.454C406.015 108.846 392.439 110.269 378.857 111.611C355.725 113.9 332.586 116.107 309.448 118.257C312.621 120.483 315.863 122.615 319.211 124.578C324.704 127.807 331.401 131.369 337.546 132.14C339.822 129.795 342.187 127.525 344.751 125.437C348.576 122.314 354.076 127.757 350.219 130.905C336.161 142.373 326.717 158.036 320.547 174.928C314.42 191.695 310.89 209.308 309.899 227.103C338.474 206.612 370.523 190.259 403.801 179.393C408.555 177.838 410.574 185.312 405.858 186.848C369.401 198.755 334.16 217.503 303.898 241.174C311.931 251.902 320.904 261.884 332.022 269.547C336.098 272.356 332.223 279.059 328.115 276.231C320.077 270.688 312.903 264.085 306.488 256.736C292.875 241.136 282.108 223.128 270.533 206.029C258.556 188.321 246.598 170.564 236.051 151.96C225.466 133.287 217.791 113.097 206.805 94.675C201.851 86.3669 195.969 78.5478 189.736 71.1614C184.205 64.609 177.928 58.2322 169.965 54.7208C155.542 48.3628 135.752 52.9024 125.945 65.3615C121.261 71.3057 119.405 78.3221 119.154 85.6833C119.167 85.953 119.16 86.2226 119.123 86.4922C118.91 99.0202 123.243 112.483 126.416 123.43C129.457 133.914 133.018 144.285 137.596 154.211C142.136 164.056 147.805 173.292 153.16 182.703C161.035 196.542 167.319 211.114 172.391 226.137C172.837 226.714 173.088 227.398 173.063 228.144C174.636 232.922 176.104 237.75 177.446 242.616C181.07 255.733 183.961 268.932 186.35 282.212C186.444 282.501 186.5 282.796 186.513 283.097C189.473 299.713 191.623 316.467 193.204 333.384C195.58 358.848 198.672 384.167 206.447 408.646C217.044 442.029 235.455 472.333 257.458 499.408C271.417 516.589 286.661 532.672 300.606 549.878C311.919 563.835 322.792 578.163 332.994 592.948C346.031 611.847 358.195 631.535 367.883 652.378C370.743 658.523 373.659 664.9 375.659 671.439C392.351 656.403 409.865 642.276 428.069 629.115C463.824 603.263 502.35 581.26 542.764 563.566C530.192 546.442 518.277 528.716 507.605 510.362C501.159 499.283 494.769 487.727 490.906 475.443Z" class="bg"/>
<path  fill="var(--svg-bg)" d="M167.625 236.521C160.32 246.29 152.469 255.626 142.499 262.843C138.937 265.42 135.056 267.759 130.993 269.772C127.337 274.13 124.039 279.133 122.095 284.482C120.609 288.57 119.386 293.818 122.208 297.643C126.246 303.105 135.244 303.719 141.358 302.935C155.68 301.098 167.826 290.564 178.474 281.384C177.414 276.017 176.304 270.662 175.106 265.32C172.943 255.658 170.491 246.026 167.625 236.521Z" class="bg"/>
<path  fill="var(--svg-bg)" d="M180.675 96.0163C179.753 91.0189 177.483 86.404 174.862 82.0838C172.429 78.0645 169.538 73.8384 165.838 70.86C162.571 68.239 157.963 68.4083 154.037 69.0416C149.88 69.7063 145.459 70.8161 141.64 72.6282C138.185 74.2648 134.586 76.6851 133.156 80.4034C131.482 84.7737 132.886 90.0471 134.304 94.2858C135.959 99.2518 138.386 103.917 140.85 108.526C141.496 109.736 142.117 110.971 142.807 112.156C143.383 113.147 143.013 112.225 142.888 112.231C143.396 112.212 144.067 112.037 144.525 111.955C147.077 111.51 149.61 110.958 152.112 110.294C157.58 108.839 162.91 106.889 167.989 104.393C170.604 103.108 173.156 101.697 175.639 100.167C176.781 99.465 180.894 97.6027 180.675 96.0163Z" class="bg"/>


<path fill="var(--stroke)" d="M152.112 110.294C149.61 110.958 147.077 111.51 144.525 111.955C144.067 112.037 143.396 112.212 142.888 112.231C143.014 112.225 143.384 113.147 142.807 112.156C142.117 110.971 141.496 109.736 140.85 108.525C138.386 103.917 135.959 99.2517 134.304 94.2857C132.887 90.047 131.482 84.7736 133.156 80.4033C134.586 76.685 138.185 74.2647 141.64 72.6281C145.459 70.816 149.88 69.7062 154.037 69.0415C157.963 68.4082 162.572 68.2389 165.839 70.8599C169.538 73.8383 172.429 78.0644 174.862 82.0837C177.483 86.4039 179.753 91.0188 180.675 96.0162C180.894 97.6026 176.781 99.4649 175.64 100.167C173.156 101.697 170.604 103.108 167.99 104.393C162.91 106.889 157.58 108.839 152.112 110.294ZM183.879 103.979C187.479 101.34 188.739 98.3927 188.137 93.9596C187.102 88.3728 184.469 83.0117 181.546 78.1836C178.649 73.412 175.176 68.5525 170.83 64.991C161.851 57.6359 147.234 61.4232 137.734 65.9503C132.63 68.3769 128.071 72.3084 125.964 77.6569C123.694 83.4318 124.848 90.1912 126.698 95.9159C128.736 102.211 131.846 108.112 134.969 113.918C136.461 116.677 137.734 119.241 141.101 119.85C144.356 120.439 148.181 119.179 151.341 118.451C159.229 116.633 166.898 113.736 174.059 109.974C177.445 108.199 180.794 106.243 183.879 103.979Z" class="stroke"/>
<path  fill="var(--stroke)" d="M203.142 150.279C193.278 155.233 183.226 159.81 172.987 163.942C171.055 164.726 169.688 166.519 170.284 168.701C170.792 170.538 173.093 172.187 175.043 171.404C185.904 167.014 196.583 162.211 207.049 156.957C208.911 156.016 209.444 153.383 208.434 151.665C207.324 149.765 205.017 149.332 203.142 150.279Z" class="stroke"/>
<path  fill="var(--stroke)" d="M428.069 629.115C409.865 642.276 392.351 656.403 375.659 671.439C373.659 664.899 370.743 658.522 367.883 652.378C358.195 631.535 346.03 611.847 332.994 592.948C322.792 578.163 311.918 563.835 300.606 549.878C286.661 532.672 271.417 516.589 257.458 499.408C235.455 472.333 217.044 442.029 206.447 408.646C198.671 384.167 195.58 358.847 193.204 333.384C191.623 316.467 189.473 299.713 186.513 283.096C186.5 282.795 186.444 282.501 186.35 282.212C183.961 268.932 181.07 255.733 177.445 242.615C176.104 237.75 174.636 232.922 173.062 228.144C173.088 227.398 172.837 226.714 172.391 226.137C167.319 211.114 161.035 196.542 153.16 182.703C147.804 173.291 142.136 164.055 137.596 154.211C133.018 144.285 129.457 133.914 126.415 123.43C123.243 112.482 118.91 99.02 119.123 86.492C119.16 86.2224 119.167 85.9528 119.154 85.6831C119.405 78.3219 121.261 71.3054 125.945 65.3612C135.752 52.9022 155.542 48.3625 169.965 54.7206C177.928 58.2319 184.205 64.6088 189.736 71.1612C195.969 78.5476 201.851 86.3666 206.804 94.6747C217.791 113.097 225.466 133.287 236.051 151.96C246.598 170.564 258.556 188.321 270.532 206.028C282.108 223.127 292.875 241.136 306.488 256.736C312.903 264.085 320.076 270.687 328.115 276.23C332.223 279.058 336.098 272.355 332.022 269.546C320.904 261.884 311.931 251.902 303.898 241.173C334.16 217.503 369.401 198.755 405.858 186.848C410.574 185.311 408.555 177.837 403.801 179.392C370.523 190.259 338.474 206.612 309.899 227.103C310.89 209.308 314.42 191.695 320.547 174.928C326.717 158.036 336.161 142.373 350.219 130.904C354.076 127.757 348.576 122.314 344.751 125.437C342.187 127.525 339.822 129.795 337.546 132.14C331.401 131.368 324.704 127.807 319.211 124.578C315.863 122.615 312.621 120.483 309.448 118.257C332.586 116.106 355.725 113.899 378.857 111.611C392.439 110.269 406.015 108.846 419.591 107.454C429.548 112.608 439.481 117.806 449.351 123.11C456.957 127.192 464.507 131.199 471.091 136.867C478.973 143.646 485.695 151.634 492.261 159.66C499.34 168.306 506.112 176.84 508.953 187.863C511.637 198.253 511.38 209.151 510.684 219.767C509.235 241.894 506.257 263.903 503.046 285.83C496.431 330.982 488.373 376.191 487.282 421.92C487.018 432.924 487.175 443.941 487.928 454.933C488.398 461.855 488.818 468.79 490.906 475.443C494.769 487.727 501.159 499.283 507.605 510.362C518.277 528.715 530.192 546.441 542.764 563.566C502.35 581.26 463.824 603.263 428.069 629.115ZM141.358 302.935C135.244 303.719 126.246 303.105 122.208 297.643C119.386 293.819 120.609 288.57 122.095 284.482C124.039 279.134 127.337 274.13 130.993 269.772C135.056 267.759 138.938 265.42 142.5 262.843C152.47 255.626 160.321 246.29 167.626 236.521C170.491 246.026 172.943 255.658 175.107 265.32C176.304 270.662 177.414 276.017 178.474 281.385C167.826 290.564 155.68 301.098 141.358 302.935ZM114.953 267.527C105.089 270.161 91.8644 270.223 85.644 260.536C79.3483 250.723 85.6315 238.653 91.6889 230.501C98.4674 221.391 106.249 213.026 113.523 204.304C114.652 204.329 115.774 204.335 116.884 204.304C122.885 204.135 128.811 202.887 134.166 200.122C139.377 197.438 143.791 193.4 147.924 189.293C150.419 193.789 152.84 198.322 155.022 202.994C158.747 210.957 161.926 219.146 164.735 227.467C158.427 236.176 151.893 244.779 143.81 251.946C139.032 256.178 133.664 259.765 127.927 262.599C127.4 262.693 126.873 262.944 126.384 263.364C122.697 265.082 118.872 266.48 114.953 267.527ZM87.2995 181.712C83.581 171.097 89.814 161.641 96.7932 154.079C103.221 147.119 110.413 140.956 117.141 134.303C118.621 134.196 120.101 134.096 121.581 133.989C122.616 137.181 123.694 140.366 124.867 143.514C128.729 153.916 133.464 163.886 138.938 173.536C140.675 176.583 142.424 179.624 144.174 182.672C143.653 182.841 143.145 183.142 142.669 183.619C138.562 187.719 134.197 191.826 128.798 194.159C123.776 196.328 118.201 196.786 112.789 196.51C112.187 196.278 111.535 196.215 110.896 196.385C100.9 195.557 90.9051 192.002 87.2995 181.712ZM97.1443 128.014C92.5291 128.34 87.4814 129.124 82.9227 129.117C84.3147 116.846 83.512 104.475 80.314 92.5428C82.3269 92.4049 84.3398 92.2669 86.3526 92.1227C94.7866 91.5333 103.227 90.9314 111.661 90.3169C112.024 97.5653 113.555 104.795 115.279 111.774C116.495 116.683 117.818 121.568 119.242 126.421C117.869 126.521 116.495 126.622 115.122 126.716C114.997 126.722 114.878 126.722 114.746 126.747C108.883 127.174 103.014 127.6 97.1443 128.014ZM86.6913 68.9227C82.8098 60.4516 87.8075 51.1152 94.2097 45.4218C102.506 38.0479 114.156 35.3956 124.691 33.0442C137.05 30.2853 149.592 28.3666 162.089 26.3225C187.234 22.2217 212.385 18.1147 237.53 14.0077C250.028 11.9699 262.6 9.31126 275.21 8.08856C281.193 7.51169 287.231 7.51799 293.044 9.21096C298.336 10.7534 303.171 13.481 307.73 16.5346C327.388 29.6896 344.544 46.356 362.861 61.3294C335.985 63.9002 309.103 66.3644 282.215 68.7534C285.281 59.1348 290.786 50.5132 298.311 43.6535C299.854 42.2427 299.741 39.6092 298.311 38.1796C296.775 36.6434 294.392 36.7688 292.843 38.1796C283.801 46.425 277.236 57.2537 274.025 69.0544C273.981 69.1986 273.975 69.3303 273.956 69.4683C256.242 71.0296 238.534 72.5971 220.819 74.0706C214.912 74.5659 209.005 75.0487 203.099 75.5316C200.778 72.3964 198.371 69.324 195.825 66.3582C194.433 61.8185 193.918 57.3917 193.843 52.6326C193.762 47.4784 194.132 42.807 195.58 37.935C197.004 33.1571 189.542 31.113 188.124 35.8784C186.519 41.2646 186.017 47.0332 186.105 52.6326C186.124 53.8804 186.187 55.1407 186.268 56.3947C181.446 52.131 176.028 48.5694 169.896 46.4313C161.901 43.6473 152.871 43.6661 144.675 45.5158C126.861 49.5476 113.799 63.1666 111.855 81.4758C111.811 81.8395 111.805 82.2094 111.78 82.5731C109.886 82.7111 107.992 82.8427 106.099 82.9807C97.9344 81.4445 90.2467 76.6791 86.6913 68.9227ZM316.621 164.118C315.511 166.639 314.458 169.184 313.498 171.761C306.212 191.293 302.45 212.129 301.948 232.959C301.089 233.618 300.243 234.289 299.384 234.953C296.794 231.266 294.267 227.535 291.796 223.805C279.719 205.583 267.146 187.694 255.458 169.216C249.94 160.487 244.641 151.621 239.687 142.561C248.491 141.764 257.502 140.492 265.905 137.927C269.297 141.087 273.298 143.526 277.198 146.016C281.55 148.793 285.927 151.534 290.435 154.06C298.587 158.631 307.316 162.732 316.621 164.118ZM293.408 146.856C289.225 144.479 285.156 141.921 281.105 139.338C277.079 136.773 272.915 134.384 269.667 130.829C268.789 129.863 267.146 129.412 265.905 129.832C256.323 133.055 245.845 134.366 235.775 135.149C234.1 131.876 232.47 128.584 230.877 125.274C253.263 123.361 275.637 121.374 298.004 119.317C298.236 119.499 298.468 119.681 298.7 119.862C299.446 120.439 300.199 121.022 300.957 121.593C302.456 122.728 303.967 123.831 305.503 124.91C309.002 127.374 312.602 129.713 316.314 131.845C321.105 134.598 326.284 137.25 331.708 138.767C327.244 144.36 323.406 150.424 320.114 156.807C320.058 156.801 320.007 156.782 319.945 156.775C310.476 156.073 301.522 151.471 293.408 146.856ZM373.59 68.0072C411.966 64.3015 450.323 60.4641 488.655 56.3947C493.74 55.8555 498.826 55.3037 503.905 54.7582C504.35 65.7625 504.539 76.7794 504.401 87.7962C504.388 89.0879 504.902 90.041 505.661 90.6618C467.429 94.8064 429.178 98.8507 390.915 102.676C342.306 107.535 293.665 112.112 244.992 116.339C239.111 116.846 233.229 117.354 227.347 117.85C226.312 115.661 225.278 113.473 224.23 111.285C219.534 101.44 214.254 91.8782 208.228 82.8302C254.028 79.068 299.804 75.0362 345.554 70.7286C354.628 69.8758 363.688 68.9604 372.762 68.0888C373.038 68.0951 373.314 68.0637 373.59 68.0072ZM511.618 53.9242C515.625 53.4916 519.638 53.0715 523.645 52.6326C532.311 51.6858 542.632 48.9519 548.213 57.7553C550.822 61.8749 550.897 67.8442 551.073 72.6096C551.217 76.4784 549.869 80.2343 547.135 83.012C543.717 86.4858 539.491 86.9999 534.857 87.5078C527.05 88.3668 519.23 89.1882 511.417 90.041C511.85 89.4579 512.126 88.718 512.138 87.7962C512.276 76.5035 512.088 65.2107 511.618 53.9242ZM75.3101 128.315C72.6389 127.813 69.9676 127.205 67.4092 126.791C56.1535 124.973 44.904 123.148 33.6546 121.33C33.6984 121.311 33.7487 121.311 33.7988 121.298C36.6708 120.326 38.0628 117.511 37.348 114.595C36.8902 112.727 35.5921 111.435 33.9743 110.72C46.7601 104.789 59.5709 98.9134 72.526 93.4207C75.7114 104.745 76.7336 116.621 75.3101 128.315ZM804.661 827.136C783.429 798.274 761.996 769.556 740.407 740.964C719.494 713.268 698.432 685.679 677.174 658.247C659.341 635.228 641.382 612.304 623.096 589.644C616.167 581.066 609.195 572.519 602.109 564.073C596.302 557.157 589.724 549.508 579.804 550.015C573.722 550.323 567.966 553.075 562.391 555.301C558.24 556.957 554.12 558.694 550.007 560.437C539.271 545.89 529.119 530.847 519.663 515.454C512.596 503.942 505.579 492.084 500.569 479.506C494.612 464.564 494.926 448.425 494.901 432.247C494.819 386.092 502.695 340.381 509.473 294.866C512.778 272.675 515.926 250.434 517.794 228.068C519.6 206.361 520.146 184.264 506.859 165.773C500.676 157.17 493.703 148.887 486.517 141.112C479.513 133.525 471.712 126.647 462.682 121.568C453.107 116.188 443.369 111.084 433.618 106.024C465.491 102.732 497.352 99.3649 529.207 95.8661C534.361 95.3018 540.074 95.3394 544.952 93.4395C549.097 91.828 552.54 89.0879 555.079 85.4449C559.312 79.3815 558.842 72.7476 558.208 65.8189C557.5 58.0689 554.835 51.2468 547.994 46.8764C539.14 41.2269 527.84 44.4436 518.146 45.497C470.075 50.7138 421.98 55.636 373.859 60.2823C353.994 44.7383 335.709 27.2003 315.261 12.3899C305.259 5.14777 294.436 -0.0314438 281.857 -9.24021e-05C268.3 0.0312589 254.517 3.44226 241.18 5.61805C213.708 10.1013 186.237 14.5846 158.759 19.0741C145.027 21.3126 131.244 23.4194 117.712 26.7364C106.619 29.4514 95.0625 33.2951 86.917 41.7098C79.1226 49.7545 74.9339 61.5238 79.7058 72.1645C81.8692 76.98 85.3681 81.0432 89.5945 84.1595C89.3562 84.1783 89.1116 84.1971 88.8734 84.2159C84.6783 84.5106 80.4834 84.799 76.2883 85.0875C74.2567 85.2254 72.2751 85.2191 70.3689 85.9653C66.3432 87.5454 62.4303 89.5644 58.4861 91.3577C43.6436 98.092 28.7949 104.833 13.9524 111.573C9.92041 113.398 5.89461 115.229 1.86889 117.053C-1.04693 118.376 -0.407257 123.606 2.79075 124.126C28.3058 128.252 53.8082 132.491 79.3421 136.516C84.1077 137.269 89.2183 136.303 94.009 135.971C97.6898 135.707 101.377 135.438 105.058 135.174C100.894 139.068 96.7117 142.937 92.7737 147.063C86.0266 154.148 79.6744 162.237 78.552 172.282C77.5612 181.186 81.4303 190.66 88.3154 196.391C92.8051 200.122 98.4235 202.247 104.255 203.351C97.9658 210.719 91.5322 217.98 85.688 225.698C78.2699 235.505 72.2313 248.478 77.1537 260.78C81.819 272.418 94.68 277.566 106.544 276.77C110.413 276.506 114.276 275.773 118.076 274.726C113.548 282.519 110.739 291.524 114.407 299.512C117.9 307.105 126.785 310.184 134.555 310.811C143.879 311.57 153.298 308.522 161.249 303.82C167.933 299.869 174.128 295.073 180.11 290.081C181.371 297.186 182.468 304.315 183.284 311.488C186.124 336.394 187.428 361.468 192.558 386.067C198.991 416.929 211.413 446.067 228.432 472.571C240.014 490.605 253.489 507.252 267.755 523.223C281.826 538.974 295.42 555.182 308.231 571.974C325.419 594.509 341.497 618.098 354.715 643.21C356.784 647.148 358.785 651.13 360.679 655.155C361.462 656.823 362.234 658.497 362.98 660.178C363.287 660.886 363.601 661.589 363.902 662.297C364.472 663.608 364.115 662.767 364.598 663.927C366.052 667.464 367.463 671.038 368.592 674.694C368.724 675.12 368.862 675.553 368.975 675.991C369.081 676.405 369.251 676.75 369.445 677.064C362.867 683.071 356.352 689.203 350.301 695.699C346.557 699.718 343.202 704.17 341.459 709.443C339.616 714.993 339.942 721.031 341.246 726.662C343.491 736.299 348.401 745.391 352.621 754.295C356.534 762.559 360.559 770.773 364.66 778.937C373.696 796.92 383.109 814.715 392.803 832.347C408.022 860.037 423.855 887.463 440.817 914.143H449.903C437.976 895.507 426.689 876.452 415.697 857.309C396.189 823.33 377.603 788.75 360.722 753.385C356.69 744.946 352.119 736.406 349.454 727.426C347.767 721.727 347.034 715.569 349.511 709.976C351.724 704.991 355.756 701.079 359.556 697.298C375.527 681.434 392.395 666.461 410.009 652.447C444.98 624.625 483.068 600.673 523.212 581.053C533.258 576.144 543.435 571.497 553.738 567.152C558.98 564.939 564.253 562.807 569.558 560.75C574.687 558.756 580.444 556.248 585.755 558.988C591.693 562.048 595.938 568.688 600.159 573.761C603.57 577.862 606.962 581.988 610.336 586.126C627.586 607.282 644.473 628.732 661.253 650.265C681.689 676.499 701.924 702.891 722.015 729.389C743.329 757.492 764.486 785.715 785.461 814.069C804.875 840.31 824.144 866.658 843.144 893.206C848.129 900.166 853.089 907.145 858.031 914.143H867.455C865.392 911.221 863.342 908.292 861.272 905.377C842.668 879.104 823.737 853.064 804.661 827.136Z" class="stroke"/>
<path  fill="var(--stroke)" d="M601.682 609.916C535.992 627.504 475.029 661.796 425.629 708.51C411.59 721.79 398.528 736.08 386.538 751.242C383.478 755.104 388.921 760.609 392.006 756.709C433.618 704.102 488.323 662.411 549.938 635.938C567.382 628.445 585.398 622.281 603.739 617.371C608.542 616.086 606.504 608.624 601.682 609.916Z" class="stroke"/>
</svg>
