<svg width="304" height="165" viewBox="0 0 304 165" fill="none" xmlns="http://www.w3.org/2000/svg">
<path d="M287.671 50.7334L22.3499 31.2118C17.9272 30.8861 14.0782 34.2077 13.7525 38.6304L8.85891 105.142C8.53321 109.565 11.8548 113.414 16.2775 113.74L281.598 133.261C286.021 133.587 289.87 130.265 290.196 125.843L295.089 59.3308C295.415 54.9081 292.093 51.0591 287.671 50.7334Z" fill="#3E4962" stroke="#FBE8D7" stroke-width="2" stroke-miterlimit="10"/>
<path d="M191.686 57.5241L22.0375 45.0422C21.0549 44.9699 20.3166 44.1149 20.389 43.1315L20.5169 41.3884C20.5892 40.4059 21.4443 39.6675 22.4277 39.74L192.076 52.2228C193.058 52.2951 193.797 53.1502 193.724 54.1336L193.596 55.8766C193.524 56.8582 192.668 57.5964 191.686 57.5241Z" fill="#3E4962" stroke="#FBE8D7" stroke-width="2" stroke-miterlimit="10"/>
<path d="M286.225 64.4801L242.456 61.2593C241.474 61.187 240.735 60.3319 240.808 59.3485L240.936 57.6055C241.008 56.623 241.863 55.8846 242.846 55.9571L286.615 59.1779C287.598 59.2502 288.336 60.1053 288.263 61.0887L288.136 62.8317C288.063 63.8142 287.208 64.5526 286.225 64.4801Z" fill="#3E4962" stroke="#FBE8D7" stroke-width="2" stroke-miterlimit="10"/>
<path d="M231.405 60.4462L201.777 58.2659C200.313 58.1583 199.214 56.8841 199.321 55.4196C199.429 53.9552 200.703 52.8561 202.168 52.9637L231.795 55.1439C233.259 55.2515 234.358 56.5258 234.251 57.9902C234.143 59.4546 232.869 60.5538 231.405 60.4462Z" fill="#3E4962" stroke="#FBE8D7" stroke-width="2" stroke-miterlimit="10"/>
<path d="M187.158 119.053L17.5099 106.57C16.5274 106.498 15.789 105.642 15.8615 104.659L19.8976 49.8112C19.9699 48.8286 20.825 48.0903 21.8084 48.1628L191.457 60.6446C192.439 60.717 193.178 61.572 193.105 62.5554L189.07 117.403C188.996 118.387 188.142 119.124 187.158 119.053Z" fill="#3E4962" stroke="#FBE8D7" stroke-width="2" stroke-miterlimit="10"/>
<path d="M281.697 126.008L237.929 122.787C236.946 122.715 236.208 121.86 236.28 120.876L240.316 66.0284C240.389 65.0459 241.244 64.3075 242.227 64.3799L285.996 67.6007C286.978 67.673 287.717 68.5281 287.644 69.5115L283.608 124.359C283.536 125.342 282.681 126.08 281.697 126.008Z" fill="#3E4962" stroke="#FBE8D7" stroke-width="2" stroke-miterlimit="10"/>
<path d="M230.36 86.5669L199.17 84.272C198.187 84.1997 197.449 83.3446 197.521 82.3612L198.947 62.9857C199.02 62.0031 199.875 61.2647 200.858 61.3372L232.048 63.632C233.031 63.7044 233.769 64.5594 233.697 65.5429L232.271 84.9184C232.198 85.9008 231.343 86.6392 230.36 86.5669Z" fill="#3E4962" stroke="#FBE8D7" stroke-width="2" stroke-miterlimit="10"/>
<path d="M181.427 59.9092L177.129 118.316" stroke="#FBE8D7" stroke-width="2" stroke-miterlimit="10"/>
<path d="M168.501 58.958L164.204 117.364" stroke="#FBE8D7" stroke-width="2" stroke-miterlimit="10"/>
<path d="M155.576 58.0068L151.279 116.413" stroke="#FBE8D7" stroke-width="2" stroke-miterlimit="10"/>
<path d="M142.65 57.0557L138.353 115.462" stroke="#FBE8D7" stroke-width="2" stroke-miterlimit="10"/>
<path d="M129.726 56.1045L125.428 114.511" stroke="#FBE8D7" stroke-width="2" stroke-miterlimit="10"/>
<path d="M116.799 55.1533L112.501 113.56" stroke="#FBE8D7" stroke-width="2" stroke-miterlimit="10"/>
<path d="M103.874 54.2031L99.5766 112.609" stroke="#FBE8D7" stroke-width="2" stroke-miterlimit="10"/>
<path d="M90.9492 53.251L86.6518 111.657" stroke="#FBE8D7" stroke-width="2" stroke-miterlimit="10"/>
<path d="M78.0244 52.3008L73.727 110.707" stroke="#FBE8D7" stroke-width="2" stroke-miterlimit="10"/>
<path d="M65.0996 51.3496L60.8023 109.755" stroke="#FBE8D7" stroke-width="2" stroke-miterlimit="10"/>
<path d="M52.1738 50.3984L47.8766 108.804" stroke="#FBE8D7" stroke-width="2" stroke-miterlimit="10"/>
<path d="M39.248 49.4473L34.9506 107.854" stroke="#FBE8D7" stroke-width="2" stroke-miterlimit="10"/>
<path d="M182.048 51.4854L181.658 56.7876" stroke="#FBE8D7" stroke-width="2" stroke-miterlimit="10"/>
<path d="M169.121 50.5332L168.732 55.8356" stroke="#FBE8D7" stroke-width="2" stroke-miterlimit="10"/>
<path d="M156.196 49.5811L155.806 54.8833" stroke="#FBE8D7" stroke-width="2" stroke-miterlimit="10"/>
<path d="M143.271 48.6318L142.88 53.9332" stroke="#FBE8D7" stroke-width="2" stroke-miterlimit="10"/>
<path d="M130.346 47.6807L129.955 52.9829" stroke="#FBE8D7" stroke-width="2" stroke-miterlimit="10"/>
<path d="M117.421 46.7285L117.031 52.0308" stroke="#FBE8D7" stroke-width="2" stroke-miterlimit="10"/>
<path d="M104.495 45.7783L104.105 51.0806" stroke="#FBE8D7" stroke-width="2" stroke-miterlimit="10"/>
<path d="M91.5693 44.8262L91.18 50.1286" stroke="#FBE8D7" stroke-width="2" stroke-miterlimit="10"/>
<path d="M78.6445 43.876L78.2543 49.1782" stroke="#FBE8D7" stroke-width="2" stroke-miterlimit="10"/>
<path d="M65.7197 42.9248L65.3295 48.227" stroke="#FBE8D7" stroke-width="2" stroke-miterlimit="10"/>
<path d="M52.7939 41.9736L52.4037 47.2759" stroke="#FBE8D7" stroke-width="2" stroke-miterlimit="10"/>
<path d="M39.8691 41.0225L39.4789 46.3247" stroke="#FBE8D7" stroke-width="2" stroke-miterlimit="10"/>
<path d="M276.745 66.9219L272.448 125.328" stroke="#FBE8D7" stroke-width="2" stroke-miterlimit="10"/>
<path d="M264.482 66.0186L260.185 124.425" stroke="#FBE8D7" stroke-width="2" stroke-miterlimit="10"/>
<path d="M252.219 65.1172L247.921 123.524" stroke="#FBE8D7" stroke-width="2" stroke-miterlimit="10"/>
<path d="M277.364 58.4971L276.974 63.7993" stroke="#FBE8D7" stroke-width="2" stroke-miterlimit="10"/>
<path d="M265.102 57.5947L264.711 62.897" stroke="#FBE8D7" stroke-width="2" stroke-miterlimit="10"/>
<path d="M252.839 56.6934L252.449 61.9956" stroke="#FBE8D7" stroke-width="2" stroke-miterlimit="10"/>
<path d="M19.1749 59.6301L192.718 72.3983" stroke="#FBE8D7" stroke-width="2" stroke-miterlimit="10"/>
<path d="M18.2669 71.9603L191.811 84.7295" stroke="#FBE8D7" stroke-width="2" stroke-miterlimit="10"/>
<path d="M17.3977 83.7796L190.941 96.5486" stroke="#FBE8D7" stroke-width="2" stroke-miterlimit="10"/>
<path d="M16.5413 95.4193L190.085 108.188" stroke="#FBE8D7" stroke-width="2" stroke-miterlimit="10"/>
<path d="M239.593 75.8486L286.769 79.3192" stroke="#FBE8D7" stroke-width="2" stroke-miterlimit="10"/>
<path d="M238.686 88.1787L285.862 91.6493" stroke="#FBE8D7" stroke-width="2" stroke-miterlimit="10"/>
<path d="M237.816 99.9981L284.992 103.47" stroke="#FBE8D7" stroke-width="2" stroke-miterlimit="10"/>
<path d="M236.96 111.638L284.135 115.109" stroke="#FBE8D7" stroke-width="2" stroke-miterlimit="10"/>
<path d="M198.224 72.8041L232.974 75.3613" stroke="#FBE8D7" stroke-width="2" stroke-miterlimit="10"/>
<path d="M210.963 62.0801L209.314 84.5037" stroke="#FBE8D7" stroke-width="2" stroke-miterlimit="10"/>
<path d="M222.562 62.9336L220.911 85.3571" stroke="#FBE8D7" stroke-width="2" stroke-miterlimit="10"/>
<path d="M211.583 53.6582L211.193 58.9604" stroke="#FBE8D7" stroke-width="2" stroke-miterlimit="10"/>
<path d="M219.076 110.321L219.727 101.477C219.808 100.379 218.983 99.4234 217.885 99.3427L210.263 98.7822C209.165 98.7015 208.209 99.5261 208.128 100.624L207.477 109.468L197.579 108.74C196.481 108.659 195.525 109.484 195.445 110.582L194.926 117.623C194.846 118.721 195.67 119.677 196.768 119.758L227.541 122.023C228.639 122.103 229.595 121.279 229.676 120.181L230.194 113.139C230.275 112.041 229.45 111.085 228.352 111.004L219.076 110.321Z" fill="#3E4962" stroke="#FBE8D7" stroke-width="2" stroke-miterlimit="10"/>
<path d="M223.183 54.5107L222.792 59.813" stroke="#FBE8D7" stroke-width="2" stroke-miterlimit="10"/>
<path d="M206.665 120.486L207.535 108.66" stroke="#FBE8D7" stroke-width="2" stroke-miterlimit="10"/>
<path d="M219.134 109.514L218.264 121.34" stroke="#FBE8D7" stroke-width="2" stroke-miterlimit="10"/>
<path d="M207.477 109.468L219.075 110.322" stroke="#FBE8D7" stroke-width="2" stroke-miterlimit="10"/>
</svg>
