<svg width="378" height="153" viewBox="0 0 378 153" fill="none" xmlns="http://www.w3.org/2000/svg">
<path d="M229.887 135.407L168.868 141.222C159.786 142.087 151.536 135.62 150.443 126.776L148.746 113.058L242.654 104.109L244.351 117.827C245.445 126.671 238.969 134.542 229.887 135.407Z" fill="#3E4962" stroke="#FBE8D7" stroke-width="2" stroke-miterlimit="10"/>
<path d="M7.86598 53.9201L367.05 19.9055C370.609 19.5688 376.498 29.8589 375.927 33.7319L358.037 89.728C357.664 92.2622 355.818 94.1433 353.49 94.3641L39.8331 124.067C37.5142 124.287 35.2566 122.807 34.2627 120.417L2.59529 69.0672C1.06546 65.3873 4.296 54.2582 7.86598 53.9201Z" fill="#3E4962" stroke="#FBE8D7" stroke-width="2" stroke-miterlimit="10"/>
<path d="M7.57316 66.9611L370.355 32.7019C373.912 32.3662 376.742 34.406 375.983 36.7598L358.181 91.991C357.685 93.531 355.756 94.7329 353.429 94.9529L39.8674 124.564C37.5492 124.783 35.3751 123.977 34.504 122.573L3.08588 71.9908C1.74445 69.8315 4.00527 67.2982 7.57316 66.9611Z" stroke="#FBE8D7" stroke-width="2" stroke-miterlimit="10"/>
<path d="M22.5443 71.9507L357.356 40.4121C360.272 40.137 362.577 41.6979 361.937 43.5142L346.882 86.2589C346.464 87.4445 344.88 88.3762 342.977 88.5553L48.0855 116.334C46.1726 116.514 44.3892 115.893 43.6945 114.803L18.8285 75.8191C17.7735 74.166 19.6387 72.2245 22.5443 71.9507Z" stroke="#FBE8D7" stroke-width="2" stroke-miterlimit="10"/>
</svg>
