<svg width="119" height="133" viewBox="0 0 119 133" fill="none" xmlns="http://www.w3.org/2000/svg">
<path d="M109.707 98.2521L46.7811 128.043L2.62231 35.0248L65.5484 5.23443C71.1764 2.56984 77.7989 4.75009 80.3397 10.1038L115.295 83.7342C117.837 89.0878 115.335 95.5875 109.707 98.2521Z" fill="#DA5C4C" stroke="#FBE8D7" stroke-width="2" stroke-miterlimit="10"/>
<path d="M10.3619 36.8673C10.7243 37.6088 10.3337 38.5418 9.48788 38.9501C8.64304 39.3584 7.6632 39.0888 7.30071 38.3464C6.93827 37.6049 7.32883 36.6719 8.1747 36.2636C9.01953 35.8554 9.99941 36.1259 10.3619 36.8673Z" fill="#FBE8D7"/>
<path d="M9.09783 36.952L2.66113 40.0713L3.04861 40.8667L9.4853 37.7474L9.09783 36.952Z" fill="#FBE8D7"/>
<path d="M13.3863 43.2854C13.7487 44.0269 13.3582 44.9599 12.5123 45.3682C11.6675 45.7764 10.6876 45.5069 10.3251 44.7645C9.96269 44.023 10.3532 43.09 11.1991 42.6817C12.045 42.2733 13.0238 42.543 13.3863 43.2854Z" fill="#FBE8D7"/>
<path d="M12.1174 43.3719L5.68066 46.4912L6.06815 47.2866L12.5048 44.1673L12.1174 43.3719Z" fill="#FBE8D7"/>
<path d="M16.4117 49.7034C16.7741 50.4449 16.3836 51.3779 15.5377 51.7862C14.6928 52.1944 13.713 51.9248 13.3505 51.1824C12.9881 50.441 13.3786 49.508 14.2245 49.0996C15.0693 48.6914 16.0481 48.9611 16.4117 49.7034Z" fill="#FBE8D7"/>
<path d="M15.1418 49.7899L8.70508 52.9092L9.09256 53.7046L15.5293 50.5853L15.1418 49.7899Z" fill="#FBE8D7"/>
<path d="M19.4361 56.1213C19.7985 56.8627 19.408 57.7957 18.5621 58.204C17.7173 58.6122 16.7374 58.3427 16.3749 57.6003C16.0125 56.8588 16.403 55.9258 17.2489 55.5175C18.0948 55.1091 19.0736 55.3798 19.4361 56.1213Z" fill="#FBE8D7"/>
<path d="M18.1672 56.2088L11.7305 59.3281L12.118 60.1235L18.5547 57.0042L18.1672 56.2088Z" fill="#FBE8D7"/>
<path d="M22.4615 62.5403C22.8239 63.2818 22.4334 64.2148 21.5875 64.6231C20.7427 65.0313 19.7628 64.7617 19.4003 64.0193C19.0379 63.2779 19.4284 62.3449 20.2743 61.9366C21.1191 61.5283 22.098 61.7981 22.4615 62.5403Z" fill="#FBE8D7"/>
<path d="M21.1955 62.6249L14.7588 65.7441L15.1463 66.5395L21.583 63.4203L21.1955 62.6249Z" fill="#FBE8D7"/>
<path d="M25.4869 68.9583C25.8493 69.6997 25.4587 70.6327 24.6129 71.0411C23.768 71.4493 22.7882 71.1797 22.4257 70.4373C22.0633 69.6959 22.4538 68.7629 23.2997 68.3545C24.1445 67.9463 25.1244 68.2159 25.4869 68.9583Z" fill="#FBE8D7"/>
<path d="M24.216 69.0458L17.7793 72.165L18.1668 72.9604L24.6035 69.8411L24.216 69.0458Z" fill="#FBE8D7"/>
<path d="M28.5113 75.3751C28.8737 76.1166 28.4832 77.0496 27.6373 77.4579C26.7924 77.8661 25.8126 77.5965 25.4501 76.8542C25.0877 76.1127 25.4782 75.1797 26.3241 74.7714C27.1689 74.3632 28.1488 74.6337 28.5113 75.3751Z" fill="#FBE8D7"/>
<path d="M27.2414 75.4637L20.8047 78.583L21.1922 79.3784L27.6289 76.2591L27.2414 75.4637Z" fill="#FBE8D7"/>
<path d="M31.5357 81.7937C31.8981 82.5352 31.5075 83.4681 30.6617 83.8765C29.8168 84.2847 28.837 84.0151 28.4745 83.2727C28.1121 82.5313 28.5026 81.5983 29.3485 81.19C30.1944 80.7826 31.1732 81.0523 31.5357 81.7937Z" fill="#FBE8D7"/>
<path d="M30.2658 81.8827L23.8291 85.002L24.2166 85.7973L30.6533 82.678L30.2658 81.8827Z" fill="#FBE8D7"/>
<path d="M34.5611 88.2121C34.9235 88.9535 34.533 89.8865 33.6871 90.2948C32.8423 90.7031 31.8624 90.4335 31.4999 89.6911C31.1374 88.9487 31.528 88.0167 32.3739 87.6083C33.2188 87.2001 34.1986 87.4706 34.5611 88.2121Z" fill="#FBE8D7"/>
<path d="M33.2961 88.2957L26.8594 91.415L27.2469 92.2104L33.6836 89.0911L33.2961 88.2957Z" fill="#FBE8D7"/>
<path d="M37.5855 94.63C37.9479 95.3715 37.5574 96.3045 36.7115 96.7128C35.8667 97.121 34.8868 96.8515 34.5243 96.1091C34.1619 95.3676 34.5525 94.4346 35.3983 94.0263C36.2442 93.6179 37.223 93.8886 37.5855 94.63Z" fill="#FBE8D7"/>
<path d="M36.3195 94.7157L29.8828 97.835L30.2703 98.6303L36.707 95.511L36.3195 94.7157Z" fill="#FBE8D7"/>
<path d="M40.6109 101.049C40.9733 101.791 40.5828 102.724 39.7369 103.132C38.8921 103.54 37.9122 103.27 37.5497 102.528C37.1873 101.787 37.5779 100.854 38.4237 100.445C39.2686 100.037 40.2474 100.307 40.6109 101.049Z" fill="#FBE8D7"/>
<path d="M39.339 101.138L32.9023 104.257L33.2898 105.052L39.7265 101.933L39.339 101.138Z" fill="#FBE8D7"/>
<path d="M43.6353 107.467C43.9977 108.209 43.6072 109.142 42.7613 109.55C41.9165 109.958 40.9366 109.688 40.5742 108.946C40.2117 108.205 40.6023 107.272 41.4481 106.863C42.293 106.455 43.2728 106.725 43.6353 107.467Z" fill="#FBE8D7"/>
<path d="M42.3635 107.556L35.9268 110.675L36.3142 111.47L42.7509 108.351L42.3635 107.556Z" fill="#FBE8D7"/>
<path d="M46.6597 113.885C47.0222 114.626 46.6316 115.559 45.7857 115.968C44.9409 116.376 43.9611 116.106 43.5986 115.364C43.2361 114.622 43.6267 113.69 44.4725 113.281C45.3184 112.873 46.2973 113.143 46.6597 113.885Z" fill="#FBE8D7"/>
<path d="M45.3937 113.972L38.957 117.091L39.3445 117.886L45.7812 114.767L45.3937 113.972Z" fill="#FBE8D7"/>
<path d="M49.6851 120.303C50.0476 121.045 49.657 121.978 48.8112 122.386C47.9663 122.794 46.9865 122.525 46.624 121.782C46.2615 121.041 46.6521 120.108 47.498 119.7C48.3428 119.29 49.3216 119.561 49.6851 120.303Z" fill="#FBE8D7"/>
<path d="M48.4181 120.389L41.9814 123.508L42.3689 124.303L48.8056 121.184L48.4181 120.389Z" fill="#FBE8D7"/>
</svg>
