<svg width="150" height="199" viewBox="0 0 150 199" fill="none" xmlns="http://www.w3.org/2000/svg">
<path d="M63.6187 1.59076L54.6299 2.02734L57.2225 56.5397L66.2113 56.1031L63.6187 1.59076Z" fill="#3E4962" stroke="#FBE8D7" stroke-width="2" stroke-miterlimit="10"/>
<path d="M61.0593 114.802L67.5656 114.506L65.3468 55.7403L57.31 56.106L61.0593 114.802Z" fill="#3E4962" stroke="#FBE8D7" stroke-width="2" stroke-miterlimit="10"/>
<path d="M63.374 128.653L66.0159 128.532L67.2052 114.579L60.7903 114.874L63.374 128.653Z" fill="#3E4962" stroke="#FBE8D7" stroke-width="2" stroke-miterlimit="10"/>
<path d="M68.3237 4.92736L64.085 5.13672L66.2449 51.3208L70.4836 51.1115L68.3237 4.92736Z" fill="#3E4962" stroke="#FBE8D7" stroke-width="2" stroke-miterlimit="10"/>
<path d="M27.4333 58.0232L31.4209 59.3018L8.67659 163.108L4.689 161.829L27.4333 58.0232Z" fill="#3E4962"/>
<path d="M30.943 59.1267L34.9307 60.4053L12.1864 164.211L8.19873 162.932L30.943 59.1267Z" fill="#3E4962"/>
<path d="M4.47527 180.443L4.34536 161.904L11.7305 164.421L4.47527 180.443Z" fill="#3E4962"/>
<path d="M4.58589 161.609L27.0472 58.023L30.9889 59.3001L34.9307 60.5771L12.448 164.261L12.4263 164.254L4.72457 180.424L4.58626 161.714L4.56456 161.707L4.58589 161.609Z" fill="#3E4962" stroke="#FBE8D7" stroke-width="2" stroke-miterlimit="10"/>
<path d="M28.6597 54.2415L35.7754 56.6514L35.11 59.8591L27.9943 57.4492L28.6597 54.2415Z" fill="#3E4962" stroke="#FBE8D7" stroke-width="2" stroke-miterlimit="10"/>
<path d="M30.1339 47.2629L37.334 49.7295L35.9559 56.4494L28.7559 53.9829L30.1339 47.2629Z" fill="#3E4962" stroke="#FBE8D7" stroke-width="2" stroke-miterlimit="10"/>
<path d="M127.634 36.0121L88.6228 80.92L88.2097 90.0911L86.8356 94.0714L83.8556 97.5007L87.2328 99.0093L89.1228 96.8191L92.5353 95.2897L100.34 95.0007L102.326 92.7136L139.351 50.0918L127.634 36.0121Z" fill="#3E4962" stroke="#FBE8D7" stroke-width="2" stroke-miterlimit="10"/>
<path d="M144.228 44.5435L132.3 30.0713L127.06 36.1621L138.988 50.6343L144.228 44.5435Z" stroke="#FBE8D7" stroke-width="2" stroke-miterlimit="10"/>
<path d="M31.5483 147.876L33.8193 196.957L50.1603 195.539L47.8893 146.458L31.5483 147.876Z" stroke="#FBE8D7" stroke-width="2" stroke-miterlimit="10"/>
<path d="M33.1526 177.889L33.4561 184.414L50.1447 182.973L49.8412 176.449L33.1526 177.889Z" fill="#FBE8D7"/>
</svg>
