<svg width="96" height="124" viewBox="0 0 96 124" fill="none" xmlns="http://www.w3.org/2000/svg">
<path d="M85.4661 64.4559C87.2007 43.0055 71.2179 24.2103 49.7675 22.4757C28.3171 20.7411 9.52193 36.7239 7.7873 58.1743C6.05268 79.6247 22.0355 98.4199 43.4859 100.154C64.9363 101.889 83.7315 85.9063 85.4661 64.4559Z" fill="#4D3144" stroke="#FBE8D7" stroke-width="2" stroke-miterlimit="10"/>
<path d="M69.4246 84.1022C82.0213 71.5055 82.0213 51.0824 69.4246 38.4857C56.828 25.8891 36.4048 25.8891 23.8082 38.4857C11.2116 51.0824 11.2116 71.5055 23.8082 84.1022C36.4049 96.6988 56.828 96.6988 69.4246 84.1022Z" fill="#4D3144" stroke="#FBE8D7" stroke-width="2" stroke-miterlimit="10"/>
<path d="M43.6347 36.418C49.8947 47.566 51.2317 58.702 46.6207 61.291C42.0097 63.88 33.1967 56.942 26.9377 45.794C20.6777 34.646 13.8887 3 13.8887 3C13.8887 3 37.3747 25.27 43.6347 36.418Z" fill="#4D3144" stroke="#FBE8D7" stroke-width="2" stroke-miterlimit="10"/>
<path d="M28.2542 64.3814C34.9642 58.6534 43.1871 57.2694 46.6201 61.2914C50.0541 65.3134 47.3982 73.2174 40.6882 78.9464C33.9782 84.6744 11.5352 91.2454 11.5352 91.2454C11.5352 91.2454 21.5442 70.1104 28.2542 64.3814Z" fill="#4D3144" stroke="#FBE8D7" stroke-width="2" stroke-miterlimit="10"/>
<path d="M52.295 82.685C45.139 74.303 42.599 64.725 46.621 61.291C50.643 57.857 59.704 61.869 66.86 70.25C74.016 78.632 84.038 105.118 84.038 105.118C84.038 105.118 59.45 91.067 52.295 82.685Z" fill="#4D3144" stroke="#FBE8D7" stroke-width="2" stroke-miterlimit="10"/>
<path d="M65.3934 57.8539C58.4594 63.7739 50.0544 65.3129 46.6204 61.2909C43.1864 57.2689 46.0244 49.2099 52.9584 43.2899C59.8924 37.3699 82.8784 30.3359 82.8784 30.3359C82.8784 30.3359 72.3274 51.9339 65.3934 57.8539Z" fill="#4D3144" stroke="#FBE8D7" stroke-width="2" stroke-miterlimit="10"/>
<path d="M33.6122 49.5546C41.9802 52.0216 47.8042 57.2766 46.6202 61.2926C45.4362 65.3076 37.6932 66.5626 29.3252 64.0956C20.9572 61.6286 2.86523 48.3916 2.86523 48.3916C2.86523 48.3916 25.2442 47.0866 33.6122 49.5546Z" fill="#4D3144" stroke="#FBE8D7" stroke-width="2" stroke-miterlimit="10"/>
<path d="M37.4603 81.0261C38.3463 69.7981 42.4473 60.9621 46.6203 61.2911C50.7933 61.6201 53.4583 70.9901 52.5723 82.2181C51.6863 93.4461 41.9873 120.003 41.9873 120.003C41.9873 120.003 36.5743 92.2541 37.4603 81.0261Z" fill="#4D3144" stroke="#FBE8D7" stroke-width="2" stroke-miterlimit="10"/>
<path d="M61.7709 70.0906C53.0739 69.4046 46.2899 65.4646 46.6199 61.2916C46.9489 57.1186 54.267 54.2916 62.964 54.9776C71.661 55.6636 92.096 64.8796 92.096 64.8796C92.096 64.8796 70.4679 70.7766 61.7709 70.0906Z" fill="#4D3144" stroke="#FBE8D7" stroke-width="2" stroke-miterlimit="10"/>
<path d="M55.231 48.5214C54.649 55.9034 50.793 61.6204 46.62 61.2914C42.447 60.9624 39.536 54.7114 40.118 47.3294C40.7 39.9474 49.665 22.6924 49.665 22.6924C49.665 22.6924 55.813 41.1394 55.231 48.5214Z" fill="#4D3144" stroke="#FBE8D7" stroke-width="2" stroke-miterlimit="10"/>
<path d="M36.0249 61.8967C40.3769 59.2307 45.1279 59.0647 46.6349 61.5247C48.1419 63.9857 45.8359 68.1407 41.4829 70.8067C37.1299 73.4727 23.877 75.4637 23.877 75.4637C23.877 75.4637 31.6729 64.5617 36.0249 61.8967Z" fill="#4D3144" stroke="#FBE8D7" stroke-width="2" stroke-miterlimit="10"/>
</svg>
