<svg width="131" height="131" viewBox="0 0 131 131" fill="none" xmlns="http://www.w3.org/2000/svg">
<path opacity="0.1" d="M77.5551 111.658C102.387 105.67 117.664 80.6855 111.676 55.8534C105.688 31.0212 80.7038 15.7448 55.8717 21.7325C31.0396 27.7202 15.7632 52.7047 21.7509 77.5368C27.7386 102.369 52.723 117.645 77.5551 111.658Z" fill="#E08E57" stroke="#FBE8D7" stroke-width="2" stroke-miterlimit="10"/>
<path d="M98.1165 98.1166C116.179 80.0539 116.179 50.7684 98.1165 32.7056C80.0537 14.6429 50.7682 14.6429 32.7055 32.7056C14.6427 50.7684 14.6427 80.0539 32.7055 98.1166C50.7682 116.179 80.0537 116.179 98.1165 98.1166Z" fill="#E08E57" stroke="#FBE8D7" stroke-width="2" stroke-miterlimit="10"/>
<path opacity="0.1" d="M100.622 61.09H93.771C91.235 48.374 80.013 38.791 66.551 38.791C51.221 38.791 38.793 51.219 38.793 66.549C38.793 81.879 51.221 94.307 66.551 94.307C80.012 94.307 91.234 84.724 93.771 72.009H100.622C102.624 72.009 104.261 70.371 104.261 68.369V64.729C104.261 62.728 102.624 61.09 100.622 61.09Z" fill="#E08E57" stroke="#FBE8D7" stroke-width="2" stroke-miterlimit="10"/>
<path d="M102.108 59.5129H94.7058C91.9648 45.7729 79.8398 35.4189 65.2938 35.4189C48.7288 35.4189 35.3008 48.8469 35.3008 65.4119C35.3008 81.9769 48.7288 95.4049 65.2938 95.4049C79.8388 95.4049 91.9648 85.0509 94.7058 71.3109H102.108C104.271 71.3109 106.041 69.5409 106.041 67.3779V63.4449C106.041 61.2829 104.271 59.5129 102.108 59.5129Z" fill="#E08E57" stroke="#FBE8D7" stroke-width="2" stroke-miterlimit="10"/>
<path d="M65.2934 88.7656C78.1909 88.7656 88.6464 78.3101 88.6464 65.4126C88.6464 52.5151 78.1909 42.0596 65.2934 42.0596C52.3959 42.0596 41.9404 52.5151 41.9404 65.4126C41.9404 78.3101 52.3959 88.7656 65.2934 88.7656Z" fill="#E08E57" stroke="#FBE8D7" stroke-width="2" stroke-miterlimit="10"/>
<path d="M65.4145 88.7656C78.312 88.7656 88.7675 78.3101 88.7675 65.4126C88.7675 52.5151 78.312 42.0596 65.4145 42.0596C52.517 42.0596 42.0615 52.5151 42.0615 65.4126C42.0615 78.3101 52.517 88.7656 65.4145 88.7656Z" fill="#E08E57" stroke="#FBE8D7" stroke-width="2" stroke-miterlimit="10"/>
<path d="M59.6704 65.4126C59.6704 55.6536 65.6584 47.2976 74.1584 43.8056C71.4244 42.6826 68.4324 42.0596 65.2934 42.0596C52.3954 42.0596 41.9404 52.5156 41.9404 65.4126C41.9404 78.3106 52.3964 88.7656 65.2934 88.7656C68.4324 88.7656 71.4244 88.1426 74.1584 87.0186C65.6584 83.5276 59.6704 75.1716 59.6704 65.4126Z" fill="#FBE8D7" stroke="#FBE8D7" stroke-width="2" stroke-miterlimit="10"/>
</svg>
