<svg width="246" height="213" viewBox="0 0 246 213" fill="none" xmlns="http://www.w3.org/2000/svg">
<path d="M215.852 44.5988L149.465 97.7783L136.862 82.045L203.249 28.8655C207.399 25.5409 213.459 26.2094 216.782 30.3586L217.348 31.0643C220.673 35.2152 220.003 41.2742 215.852 44.5988Z" fill="#3E4962"/>
<path d="M149.558 96.9147L215.114 44.4013C219.187 41.139 219.85 35.1708 216.586 31.0959C213.323 27.0228 207.354 26.3673 203.281 29.6296L137.726 82.143L149.558 96.9147ZM215.882 45.3597L149.847 98.2571C149.583 98.4681 149.198 98.4255 148.987 98.1621L136.383 82.4287C136.172 82.1653 136.214 81.778 136.477 81.5669L202.512 28.6695C207.113 24.9838 213.858 25.7264 217.544 30.328C221.232 34.9313 220.483 41.6739 215.882 45.3597Z" fill="#FBE8D7"/>
<path d="M32.6035 191.389L98.9898 138.21L86.3869 122.477L20.0006 175.656C15.8499 178.981 15.1798 185.04 18.5034 189.189L19.0684 189.895C22.3931 194.045 28.4528 194.714 32.6035 191.389Z" fill="#3E4962"/>
<path d="M20.7387 175.854C16.6646 179.117 16.0042 185.086 19.2667 189.158C22.5302 193.232 28.4976 193.889 32.5718 190.626L98.1262 138.113L86.2931 123.341L20.7387 175.854ZM99.3746 138.689L33.3407 191.586C28.7378 195.273 21.9942 194.529 18.3077 189.927C14.6211 185.324 15.3678 178.582 19.9708 174.895L86.0047 121.999C86.2688 121.787 86.6555 121.829 86.8681 122.094L99.4701 137.826C99.6816 138.09 99.6387 138.478 99.3746 138.689Z" fill="#FBE8D7"/>
<path d="M81.4873 126.401L96.996 113.978L90.7081 106.129C90.7081 106.129 86.321 115.705 79.5539 123.988L81.4873 126.401Z" fill="#3E4962"/>
<path d="M81.5846 125.54L96.1329 113.886L90.8388 107.277C89.5949 109.809 85.7239 117.3 80.3434 123.99L81.5846 125.54ZM97.3824 114.46L81.8733 126.883C81.6082 127.096 81.2206 127.052 81.0083 126.787L79.0751 124.373C78.8931 124.146 78.8955 123.824 79.08 123.6C85.7134 115.476 90.1051 105.97 90.1502 105.874C90.2394 105.681 90.4217 105.546 90.6331 105.52C90.8455 105.494 91.0546 105.58 91.1872 105.746L97.4754 113.596C97.6877 113.861 97.6461 114.249 97.3824 114.46Z" fill="#FBE8D7"/>
<path d="M141.761 78.1197L126.252 90.543L119.964 82.6934C119.964 82.6934 130.268 80.5011 139.827 75.7061L141.761 78.1197Z" fill="#3E4962"/>
<path d="M126.349 89.6805L140.898 78.0265L139.656 76.4769C131.953 80.2675 123.798 82.4102 121.055 83.0715L126.349 89.6805ZM142.147 78.6003L126.638 91.0239C126.373 91.2363 125.985 91.1923 125.773 90.9272L119.485 83.0772C119.352 82.9117 119.315 82.6878 119.386 82.4859C119.457 82.2866 119.627 82.1367 119.838 82.0922C119.94 82.0702 130.177 79.858 139.553 75.1578C139.81 75.0277 140.125 75.0956 140.307 75.3228L142.24 77.7361C142.452 78.0012 142.411 78.389 142.147 78.6003Z" fill="#FBE8D7"/>
<path d="M94.0907 142.135L109.6 129.712L115.888 137.562C115.888 137.562 105.585 139.754 96.0243 144.549L94.0907 142.135Z" fill="#3E4962"/>
<path d="M96.1941 143.777C103.898 139.988 112.054 137.845 114.796 137.184L109.503 130.575L94.9543 142.229L96.1941 143.777ZM116.271 138.041C116.197 138.1 116.11 138.142 116.014 138.163C115.912 138.185 105.676 140.396 96.2998 145.097C96.0409 145.227 95.7264 145.159 95.5451 144.933L93.6115 142.519C93.3987 142.253 93.4414 141.867 93.7058 141.655L109.215 129.232C109.479 129.02 109.866 129.063 110.078 129.328L116.367 137.178C116.5 137.344 116.537 137.568 116.466 137.769C116.426 137.878 116.359 137.97 116.271 138.041Z" fill="#FBE8D7"/>
<path d="M154.364 93.8536L138.855 106.277L145.144 114.127C145.144 114.127 149.532 104.551 156.298 96.2674L154.364 93.8536Z" fill="#3E4962"/>
<path d="M139.719 106.371L145.013 112.979C146.256 110.447 150.127 102.956 155.507 96.2647L154.267 94.717L139.719 106.371ZM145.527 114.606C145.439 114.676 145.334 114.721 145.219 114.736C145.007 114.762 144.797 114.677 144.664 114.51L138.376 106.66C138.163 106.395 138.206 106.008 138.47 105.797L153.979 93.3732C154.244 93.1615 154.63 93.2041 154.843 93.4697L156.777 95.8836C156.958 96.1099 156.956 96.4317 156.772 96.6559C150.138 104.78 145.746 114.286 145.702 114.382C145.661 114.47 145.601 114.546 145.527 114.606Z" fill="#FBE8D7"/>
<path d="M216.282 47.6257L231.851 35.1544L215.391 14.6063L199.822 27.0775L216.282 47.6257ZM234.945 36.4614L216.884 50.9292C216.196 51.48 215.224 51.4095 214.714 50.7729L196.407 27.9188C195.897 27.2823 196.042 26.3199 196.73 25.7692L214.791 11.3014C215.478 10.7506 216.449 10.8193 216.959 11.4559L235.266 34.3099C235.776 34.9465 235.633 35.9106 234.945 36.4614Z" fill="#3E4962"/>
<path d="M216.377 46.7608L230.988 35.0569L215.298 15.4703L200.688 27.1742L216.377 46.7608ZM232.234 35.6331L216.666 48.1041C216.401 48.3166 216.015 48.274 215.804 48.0105L199.343 27.4614C199.132 27.1979 199.175 26.8119 199.44 26.5994L215.008 14.1284C215.273 13.9159 215.661 13.9571 215.872 14.2206L232.333 34.7697C232.544 35.0332 232.5 35.4206 232.234 35.6331ZM197.114 26.2483C196.69 26.5874 196.59 27.164 196.888 27.5364L215.195 50.39C215.493 50.7624 216.078 50.7901 216.501 50.4509L234.561 35.9842C234.984 35.6451 235.085 35.0685 234.786 34.6961L216.48 11.8425C216.181 11.4701 215.597 11.4424 215.173 11.7816L197.114 26.2483ZM235.329 36.9433L217.269 51.4099C216.317 52.1727 214.957 52.0595 214.235 51.1585L195.929 28.3048C195.208 27.4055 195.393 26.052 196.345 25.2892L214.405 10.8226C215.357 10.0598 216.718 10.1747 217.439 11.074L235.746 33.9277C236.467 34.8288 236.281 36.1805 235.329 36.9433Z" fill="#FBE8D7"/>
<path d="M221.545 28.1445L217.562 31.335L216.001 29.3854L219.984 26.1949L221.545 28.1445Z" fill="#3E4962"/>
<path d="M217.657 30.4699L220.681 28.0474L219.889 27.058L216.865 29.4805L217.657 30.4699ZM221.928 28.6249L217.945 31.8153C217.681 32.0266 217.293 31.9838 217.082 31.72L215.52 29.7706C215.309 29.5068 215.352 29.1187 215.616 28.9074L219.599 25.717C219.866 25.503 220.252 25.5472 220.463 25.8109L222.025 27.7604C222.236 28.0241 222.195 28.4108 221.928 28.6249Z" fill="#FBE8D7"/>
<path d="M28.7028 181.021C29.5465 182.074 29.3768 183.613 28.3231 184.457C27.2692 185.301 25.7305 185.131 24.8868 184.078C24.043 183.024 24.2127 181.485 25.2666 180.641C26.3203 179.797 27.859 179.967 28.7028 181.021Z" fill="#3E4962"/>
<path d="M25.6502 181.119C24.8623 181.75 24.7353 182.905 25.3653 183.691C25.9964 184.479 27.1508 184.607 27.9387 183.976C28.7263 183.345 28.8535 182.19 28.2225 181.402C27.5925 180.616 26.4378 180.488 25.6502 181.119ZM28.7061 184.934C27.3896 185.989 25.4611 185.776 24.4061 184.46C23.3522 183.144 23.5662 181.216 24.8827 180.161C26.1992 179.106 28.1275 179.319 29.1814 180.634C30.2364 181.951 30.0226 183.879 28.7061 184.934Z" fill="#FBE8D7"/>
<path d="M37.2096 174.206C38.0534 175.26 37.8837 176.798 36.8299 177.642C35.7762 178.487 34.2374 178.316 33.3936 177.263C32.5499 176.21 32.7197 174.671 33.7734 173.827C34.8271 172.983 36.3659 173.153 37.2096 174.206Z" fill="#3E4962"/>
<path d="M34.1577 174.305C33.3701 174.936 33.243 176.09 33.873 176.877C34.5041 177.665 35.6586 177.793 36.4463 177.162C37.234 176.531 37.3611 175.376 36.73 174.588C36.1 173.802 34.9455 173.674 34.1577 174.305ZM37.2137 178.12C35.8972 179.174 33.9689 178.962 32.9139 177.645C31.86 176.329 32.0738 174.401 33.3903 173.347C34.7068 172.292 36.6351 172.504 37.689 173.82C38.7439 175.137 38.5302 177.065 37.2137 178.12Z" fill="#FBE8D7"/>
<path d="M45.7166 167.393C46.5604 168.446 46.3905 169.985 45.3368 170.829C44.2829 171.673 42.7442 171.503 41.9004 170.45C41.0567 169.396 41.2264 167.857 42.2803 167.013C43.334 166.169 44.8728 166.339 45.7166 167.393Z" fill="#3E4962"/>
<path d="M42.6634 167.49C41.8758 168.121 41.7487 169.276 42.3787 170.062C43.0098 170.85 44.1644 170.978 44.952 170.347C45.7397 169.716 45.8668 168.562 45.2358 167.774C44.6057 166.987 43.4512 166.859 42.6634 167.49ZM45.7194 171.305C44.4029 172.36 42.4747 172.148 41.4198 170.831C40.3659 169.515 40.5795 167.587 41.896 166.532C43.2125 165.478 45.1409 165.69 46.1948 167.006C47.2498 168.323 47.0359 170.251 45.7194 171.305Z" fill="#FBE8D7"/>
<path d="M70.021 169.982L66.0947 173.127L45.1334 146.96L49.0597 143.814L70.021 169.982Z" fill="#3E4962"/>
<path d="M66.1908 172.265L69.158 169.888L48.9637 144.678L45.9964 147.055L66.1908 172.265ZM70.4058 170.463L66.4797 173.608C66.2147 173.82 65.8268 173.776 65.6147 173.511L44.6532 147.344C44.4412 147.079 44.4838 146.692 44.7487 146.48L48.6749 143.335C48.9397 143.123 49.3265 143.165 49.5386 143.43L70.5001 169.598C70.7122 169.863 70.6706 170.251 70.4058 170.463Z" fill="#FBE8D7"/>
<path d="M140.306 92.198C150.206 104.557 148.212 122.602 135.85 132.504C123.489 142.405 105.444 140.413 95.5445 128.054C85.6457 115.697 87.6401 97.6523 100.001 87.751C112.362 77.8485 130.408 79.8408 140.306 92.198Z" fill="#3E4962"/>
<path d="M100.386 88.2338C88.3082 97.909 86.3514 115.602 96.0218 127.674C105.694 139.749 123.388 141.701 135.466 132.026C147.543 122.352 149.499 104.659 139.827 92.584C130.156 80.5119 112.463 78.5597 100.386 88.2338ZM136.235 132.986C123.628 143.084 105.159 141.045 95.0634 128.442C84.97 115.841 87.0112 97.3726 99.6177 87.2742C112.223 77.177 130.693 79.2149 140.787 91.8152C150.882 104.418 148.84 122.888 136.235 132.986Z" fill="#FBE8D7"/>
<path d="M137.503 94.4443C146.162 105.254 144.417 121.038 133.605 129.699C122.794 138.359 107.008 136.617 98.3495 125.808C89.6917 115 91.4374 99.2147 102.248 90.5546C113.061 81.8934 128.845 83.6362 137.503 94.4443Z" fill="#3E4962"/>
<path d="M102.633 91.0354C92.1019 99.4711 90.3957 114.898 98.8281 125.425C107.262 135.953 122.689 137.655 133.22 129.22C143.75 120.785 145.456 105.358 137.022 94.8296C128.59 84.303 113.162 82.6008 102.633 91.0354ZM133.989 130.179C122.929 139.039 106.727 137.25 97.8697 126.193C89.0147 115.139 90.8053 98.9368 101.865 90.0772C112.924 81.2188 129.126 83.0077 137.981 94.0619C146.838 105.119 145.047 121.321 133.989 130.179Z" fill="#FBE8D7"/>
<path d="M119.262 109.055C119.853 109.793 119.735 110.871 118.995 111.464C118.258 112.054 117.179 111.935 116.588 111.197C115.997 110.459 116.117 109.381 116.854 108.791C117.594 108.198 118.671 108.317 119.262 109.055Z" fill="#FBE8D7"/>
<path d="M118.311 110.607C118.046 110.819 117.658 110.775 117.447 110.511L107.31 97.8575C107.098 97.5919 107.14 97.2057 107.406 96.9929C107.67 96.7812 108.057 96.8238 108.269 97.0894L118.405 109.743C118.617 110.007 118.576 110.395 118.311 110.607Z" fill="#FBE8D7"/>
<path d="M130.966 100.469L118.31 110.607C118.045 110.82 117.658 110.778 117.445 110.512C117.234 110.248 117.276 109.861 117.542 109.648L130.198 99.5103C130.464 99.2975 130.85 99.3402 131.062 99.6045C131.275 99.87 131.232 100.257 130.966 100.469Z" fill="#FBE8D7"/>
</svg>
